#!OML:ASF I:\Actors\actors\Patient Classification 1\Patient 1\Session 1\Subject1.ASF
:FULLY-SPECIFIED
:DEGREES
812
root 0.729012 17.6186 8.51793 7.11018 -0.966903 -11.3341
lowerback 0.773623 -0.674483 6.90783
upperback -6.26882 -0.434506 2.74876
thorax -7.04728 -0.522764 -0.946839
lowerneck -7.492 -12.7565 -11.2825
upperneck 31.8484 -18.8954 6.49408
head 13.8062 -9.0272 1.54476
rclavicle 8.34896e-015 -2.66371e-014
rhumerus -54.2152 82.5672 -147.479
rradius 124.772
rwrist 5.95045
rhand -18.6644 -37.3582
rfingers 7.12502
rthumb 7.62911 -67.2006
lclavicle 8.34896e-015 -2.66371e-014
lhumerus 70.8462 -70.4852 16.7288
lradius 110.331
lwrist 48.4461
lhand -2.15709 -6.09581
lfingers 7.12502
lthumb 23.5227 22.4859
rfemur -7.16782 19.4335 28.9277
rtibia 11.2463
rfoot -13.5727 -15.6526
rtoes -3.38058
lfemur 1.6064 -31.6219 -5.4633
ltibia -0.59838
lfoot -14.3129 40.4853
ltoes -0.927453
813
root 0.726029 17.6261 8.52351 7.23697 -1.01038 -11.0222
lowerback 0.620956 -0.692243 6.46878
upperback -6.285 -0.494925 2.6891
thorax -6.96935 -0.528114 -0.76421
lowerneck -7.2173 -12.9879 -11.5721
upperneck 31.7482 -19.1864 6.44305
head 13.769 -9.2056 1.53186
rclavicle 5.2181e-015 5.96354e-015
rhumerus -53.3695 82.5853 -146.673
rradius 124.748
rwrist 6.02268
rhand -18.4981 -37.3031
rfingers 7.12502
rthumb 7.78958 -67.1396
lclavicle 5.2181e-015 5.96354e-015
lhumerus 70.6435 -70.4881 16.7956
lradius 110.864
lwrist 47.3714
lhand -3.97868 -5.86307
lfingers 7.12502
lthumb 21.7744 22.9321
rfemur -7.35059 19.5103 28.5027
rtibia 11.2923
rfoot -13.6101 -15.6995
rtoes -3.2702
lfemur 1.39009 -31.6486 -5.72463
ltibia -0.493978
lfoot -14.4616 40.507
ltoes -0.675551
814
root 0.718852 17.636 8.53006 7.4261 -1.11104 -10.4441
lowerback 0.384304 -0.717656 5.66719
upperback -6.33073 -0.587491 2.57947
thorax -6.86749 -0.530805 -0.431459
lowerneck -6.95255 -13.0991 -11.6696
upperneck 31.5965 -19.3231 6.38522
head 13.6678 -9.29784 1.52048
rclavicle 1.15792e-014 -1.07344e-014
rhumerus -53.0826 82.6214 -146.55
rradius 124.643
rwrist 6.02011
rhand -18.2864 -37.2394
rfingers 7.12502
rthumb 7.99391 -67.0683
lclavicle 1.15792e-014 -1.07344e-014
lhumerus 69.8591 -70.5764 17.3869
lradius 111.039
lwrist 47.1387
lhand -4.29728 -5.93625
lfingers 7.12502
lthumb 21.4685 22.8941
rfemur -7.6221 19.7468 27.7462
rtibia 11.3346
rfoot -13.6267 -15.8763
rtoes -3.09119
lfemur 1.11417 -31.822 -6.26939
ltibia -0.381497
lfoot -14.6567 40.684
ltoes -0.514474
815
root 0.716108 17.641 8.5339 7.5004 -1.13258 -10.1919
lowerback 0.343046 -0.783173 5.27998
upperback -6.37763 -0.693555 2.55927
thorax -6.88973 -0.563139 -0.23046
lowerneck -6.71938 -13.1861 -11.4004
upperneck 31.2887 -19.3581 6.01971
head 13.4069 -9.34408 1.36605
rclavicle -2.38542e-015 -2.74323e-014
rhumerus -53.9916 82.7185 -147.662
rradius 124.463
rwrist 5.68307
rhand -18.0681 -37.2247
rfingers 7.12502
rthumb 8.20463 -67.0454
lclavicle -2.38542e-015 -2.74323e-014
lhumerus 68.5418 -70.8154 18.4745
lradius 110.743
lwrist 47.516
lhand -3.59438 -7.1853
lfingers 7.12502
lthumb 22.1434 21.5666
rfemur -7.72056 19.8571 27.4191
rtibia 11.3331
rfoot -13.6233 -15.988
rtoes -2.91405
lfemur 1.01013 -31.9763 -6.52633
ltibia -0.338233
lfoot -14.7046 40.8313
ltoes -0.443134
816
root 0.717249 17.641 8.53571 7.46332 -1.14667 -10.2085
lowerback 1.31683 -0.904355 5.43671
upperback -6.91046 -0.753818 2.46114
thorax -8.0447 -0.632956 -0.383913
lowerneck -6.5804 -13.1785 -11.1119
upperneck 31.5258 -19.3184 5.60783
head 13.3864 -9.35059 1.18758
rclavicle 5.31749e-015 3.97569e-015
rhumerus -58.1488 82.2225 -152.252
rradius 124.229
rwrist 4.82981
rhand -17.7319 -36.9792
rfingers 7.12502
rthumb 8.5291 -66.7869
lclavicle 5.31749e-015 3.97569e-015
lhumerus 67.0192 -72.0468 19.3862
lradius 109.999
lwrist 47.0117
lhand -3.07557 -6.6932
lfingers 7.12502
lthumb 22.6414 21.9988
rfemur -7.67953 19.8108 27.4467
rtibia 11.3404
rfoot -13.5654 -15.9589
rtoes -3.09949
lfemur 1.09064 -32.0263 -6.56345
ltibia -0.369961
lfoot -14.6134 40.9258
ltoes -0.543703
817
root 0.722282 17.6369 8.53572 7.35425 -1.16449 -10.4697
lowerback 0.831502 -0.835658 5.72196
upperback -6.47965 -0.701978 2.54114
thorax -7.29634 -0.602305 -0.482523
lowerneck -6.54566 -13.3022 -11.2217
upperneck 30.7322 -19.5017 5.9928
head 13.1215 -9.4117 1.33191
rclavicle 5.51627e-015 1.74931e-014
rhumerus -54.383 82.783 -148.587
rradius 124.021
rwrist 3.32153
rhand -17.5121 -36.5735
rfingers 7.12502
rthumb 8.74122 -66.3725
lclavicle 5.51627e-015 1.74931e-014
lhumerus 67.9308 -72.017 18.4198
lradius 108.762
lwrist 46.1834
lhand -2.65942 -6.44035
lfingers 7.12502
lthumb 23.0408 22.2023
rfemur -7.52571 19.6689 27.7913
rtibia 11.3418
rfoot -13.4694 -15.8141
rtoes -3.63314
lfemur 1.30086 -31.9254 -6.37135
ltibia -0.441171
lfoot -14.5942 40.8599
ltoes -0.536293
818
root 0.736058 17.6265 8.53177 7.12663 -1.04647 -11.2972
lowerback 1.39503 -0.891365 6.84894
upperback -6.53107 -0.658593 2.66789
thorax -7.70999 -0.653878 -0.964749
lowerneck -6.51639 -13.328 -11.1748
upperneck 30.2723 -19.5454 6.15114
head 12.9395 -9.41932 1.3881
rclavicle -9.34288e-015 -2.82274e-014
rhumerus -54.9961 82.5215 -149.497
rradius 123.861
rwrist 2.09138
rhand -17.5534 -36.3383
rfingers 7.12502
rthumb 8.70135 -66.139
lclavicle -9.34288e-015 -2.82274e-014
lhumerus 67.9642 -72.6614 18.074
lradius 107.423
lwrist 46.7745
lhand -1.91739 -6.12875
lfingers 7.12502
lthumb 23.7526 22.4233
rfemur -7.16419 19.2978 28.8451
rtibia 11.2819
rfoot -13.4351 -15.5029
rtoes -3.8278
lfemur 1.64955 -31.6704 -5.58581
ltibia -0.542551
lfoot -14.5285 40.5501
ltoes -0.612807
819
root 0.730173 17.6341 8.53924 7.37034 -1.26498 -10.7376
lowerback 1.33589 -0.83684 6.14371
upperback -6.70675 -0.630315 2.50236
thorax -7.84616 -0.60864 -0.747734
lowerneck -6.31752 -13.327 -11.0756
upperneck 29.9471 -19.5706 6.24661
head 12.765 -9.42591 1.42823
rclavicle -2.78299e-015 -2.0276e-014
rhumerus -55.3824 82.0209 -150.092
rradius 123.822
rwrist 1.55292
rhand -17.6703 -36.015
rfingers 7.12502
rthumb 8.58851 -65.8203
lclavicle -2.78299e-015 -2.0276e-014
lhumerus 67.9551 -73.1931 17.8861
lradius 106.409
lwrist 48.4967
lhand -0.676198 -4.35383
lfingers 7.12502
lthumb 24.9425 24.0384
rfemur -7.51238 19.6098 28.0857
rtibia 11.3611
rfoot -13.5318 -15.6305
rtoes -3.37406
lfemur 1.41421 -31.8858 -6.1432
ltibia -0.467474
lfoot -14.8751 40.8832
ltoes 0.00949326
820
root 0.737608 17.6275 8.54024 7.31716 -1.26443 -11.0973
lowerback 1.5228 -0.797729 6.64804
upperback -6.67019 -0.532732 2.53471
thorax -7.92334 -0.592071 -0.998914
lowerneck -6.1941 -13.3453 -10.9643
upperneck 29.4286 -19.6004 6.38409
head 12.5317 -9.42812 1.47912
rclavicle 5.36719e-015 1.98785e-015
rhumerus -54.444 81.588 -149.185
rradius 123.903
rwrist 1.70725
rhand -17.6717 -35.6709
rfingers 7.12502
rthumb 8.5872 -65.4763
lclavicle 5.36719e-015 1.98785e-015
lhumerus 68.3421 -73.3195 17.5084
lradius 106.111
lwrist 49.4297
lhand -0.169399 -3.51597
lfingers 7.12502
lthumb 25.4281 24.808
rfemur -7.42641 19.4702 28.5158
rtibia 11.382
rfoot -13.6086 -15.4494
rtoes -3.17554
lfemur 1.52683 -31.6777 -5.77022
ltibia -0.52584
lfoot -14.7509 40.7343
ltoes -0.239173
821
root 0.744155 17.6202 8.53994 7.23516 -1.23404 -11.4254
lowerback 1.67497 -0.753377 7.11592
upperback -6.55838 -0.435656 2.57376
thorax -7.89589 -0.569227 -1.22539
lowerneck -6.22608 -13.3619 -10.8638
upperneck 28.9902 -19.6148 6.5089
head 12.363 -9.4172 1.51508
rclavicle -3.05631e-014 3.37934e-014
rhumerus -53.3267 81.2831 -148.013
rradius 124.05
rwrist 2.31187
rhand -17.5152 -35.6448
rfingers 7.12502
rthumb 8.73816 -65.4439
lclavicle -3.05631e-014 3.37934e-014
lhumerus 69.0701 -73.088 16.9884
lradius 106.51
lwrist 48.5238
lhand -0.0591581 -4.66229
lfingers 7.12502
lthumb 25.5337 23.6466
rfemur -7.30414 19.3421 28.931
rtibia 11.3961
rfoot -13.5795 -15.3196
rtoes -3.41839
lfemur 1.6316 -31.383 -5.41733
ltibia -0.575207
lfoot -14.5033 40.4852
ltoes -0.729082
822
root 0.744945 17.6197 8.53948 7.23959 -1.22181 -11.4273
lowerback 1.85717 -0.713751 7.12856
upperback -6.55742 -0.363706 2.57288
thorax -7.99663 -0.53715 -1.23705
lowerneck -6.27115 -13.3397 -10.8447
upperneck 28.7121 -19.5777 6.62701
head 12.267 -9.38862 1.5636
rclavicle -1.77415e-014 1.23246e-014
rhumerus -52.7184 81.0069 -147.292
rradius 124.111
rwrist 3.05041
rhand -17.2769 -35.5516
rfingers 7.12502
rthumb 8.96819 -65.341
lclavicle -1.77415e-014 1.23246e-014
lhumerus 69.8081 -72.7965 16.5867
lradius 107.526
lwrist 47.4238
lhand -0.965161 -3.98341
lfingers 7.12502
lthumb 24.6656 24.4469
rfemur -7.32704 19.3609 28.9375
rtibia 11.4164
rfoot -13.4753 -15.3695
rtoes -3.85617
lfemur 1.57333 -31.2492 -5.37127
ltibia -0.55384
lfoot -14.3174 40.3736
ltoes -1.11523
823
root 0.741487 17.6261 8.54114 7.37743 -1.25437 -11.0577
lowerback 1.87184 -0.649921 6.65854
upperback -6.62491 -0.305804 2.49805
thorax -8.06337 -0.484688 -1.05943
lowerneck -6.35033 -13.353 -11.0199
upperneck 28.673 -19.6122 6.80967
head 12.3148 -9.39719 1.64031
rclavicle -2.57426e-014 3.97569e-014
rhumerus -51.566 80.7438 -145.935
rradius 124.085
rwrist 3.73174
rhand -16.9912 -35.1843
rfingers 7.12502
rthumb 9.24383 -64.9617
lclavicle -2.57426e-014 3.97569e-014
lhumerus 70.198 -72.4945 16.6736
lradius 108.675
lwrist 47.273
lhand -1.77673 -4.0276
lfingers 7.12502
lthumb 23.8875 24.5068
rfemur -7.5464 19.4733 28.4485
rtibia 11.4582
rfoot -13.4444 -15.5106
rtoes -3.84107
lfemur 1.32547 -31.3069 -5.69178
ltibia -0.460493
lfoot -14.3087 40.4466
ltoes -1.13745
